<svg width="25" height="25" viewBox="0 0 25 25" fill="none" xmlns="http://www.w3.org/2000/svg">
<path d="M17.5 24.15V24.9833H18.3333V24.15H17.5ZM0.833333 24.15H0V24.9833H0.833333V24.15ZM24.1667 24.1667V25H25V24.1667H24.1667ZM13.3333 5.83C13.3331 6.37696 13.2252 6.91851 13.0157 7.42375C12.8061 7.92899 12.4992 8.38801 12.1123 8.77461C11.7253 9.16121 11.2661 9.46782 10.7607 9.67693C10.2553 9.88604 9.71362 9.99355 9.16667 9.99333V11.66C12.3883 11.66 15 9.05 15 5.83H13.3333ZM9.16667 9.99333C8.61971 9.99355 8.07807 9.88604 7.57266 9.67693C7.06726 9.46782 6.60799 9.16121 6.22108 8.77461C5.83417 8.38801 5.52719 7.92899 5.31768 7.42375C5.10817 6.91851 5.00022 6.37696 5 5.83H3.33333C3.33355 6.59583 3.48461 7.35411 3.77788 8.06155C4.07115 8.769 4.50089 9.41176 5.04257 9.95312C5.58424 10.4945 6.22724 10.9239 6.93486 11.2167C7.64247 11.5096 8.40084 11.6602 9.16667 11.66V9.99333ZM5 5.83C5.00022 5.28304 5.10817 4.74149 5.31768 4.23625C5.52719 3.73101 5.83417 3.27199 6.22108 2.88539C6.60799 2.49879 7.06726 2.19218 7.57266 1.98307C8.07807 1.77396 8.61971 1.66645 9.16667 1.66667V2.38253e-07C8.40084 -0.000218663 7.64247 0.150405 6.93486 0.443272C6.22724 0.736138 5.58424 1.16551 5.04257 1.70688C4.50089 2.24824 4.07115 2.891 3.77788 3.59844C3.48461 4.30589 3.33355 5.06417 3.33333 5.83H5ZM9.16667 1.66667C11.4683 1.66667 13.3333 3.53167 13.3333 5.83H15C14.9998 5.06417 14.8487 4.30589 14.5555 3.59844C14.2622 2.891 13.8324 2.24824 13.2908 1.70688C12.7491 1.16551 12.1061 0.736138 11.3985 0.443272C10.6909 0.150405 9.93249 -0.000218663 9.16667 2.38253e-07V1.66667ZM17.5 23.3167H0.833333V24.9833H17.5V23.3167ZM1.66667 24.15V24.145V24.1383V24.13V24.1233V24.1167V24.11V24.1033V24.0967V24.0883V24.0817V24.075V24.0683V24.0617V24.055V24.0483V24.04V24.0333V24.0267V24.02V24.0133V24.0067V23.9983V23.9917V23.985V23.9783V23.9717V23.965V23.9583V23.9517V23.9433V23.9367V23.93V23.9233V23.9167V23.91V23.9033V23.895V23.8883V23.8817V23.875V23.8683V23.8617V23.855V23.8483V23.8417V23.8333V23.8267V23.82V23.8133V23.8067V23.8V23.7933V23.785V23.7783V23.7717V23.765V23.7583V23.7517V23.745V23.7383V23.7317V23.7233V23.7167V23.71V23.7033V23.6967V23.69V23.6833V23.6767V23.67V23.6633V23.655V23.6483V23.6417V23.635V23.6283V23.6217V23.615V23.6083V23.6017V23.595V23.5867V23.58V23.5733V23.5667V23.56V23.5533V23.5467V23.54V23.5333V23.5267V23.52V23.5133V23.505V23.4983V23.4917V23.485V23.4783V23.4717V23.465V23.4583V23.4517V23.445V23.4383V23.4317V23.425V23.4167V23.41V23.4033V23.3967V23.39V23.3833V23.3767V23.37V23.3633V23.3567V23.35V23.3433V23.3367V23.33V23.3233V23.3167V23.3083V23.3033V23.295V23.2883V23.2817V23.275V23.2683V23.2617V23.255V23.2483V23.2417V23.235V23.2283V23.2217V23.215V23.2083V23.2017V23.195V23.1883V23.1817V23.175V23.1683V23.1617V23.155V23.1467V23.14V23.1333V23.1267V23.12V23.1133V23.1067V23.1V23.0933V23.0867V23.08V23.0733V23.0667V23.06V23.0533V23.0467V23.04V23.0333V23.0267V23.02V23.0133V23.0067V23V22.9933V22.9867V22.98V22.9733V22.9667V22.96V22.9533V22.9467V22.94V22.9333V22.9267V22.92V22.9133V22.9067V22.9V22.8933V22.8867V22.88V22.8733V22.8667V22.86V22.8533V22.8467V22.84V22.8333V22.8267V22.82V22.8133V22.8067V22.8V22.7933V22.7867V22.78V22.7733V22.7683V22.76V22.7533V22.7483V22.7417V22.735V22.7283V22.7217V22.715V22.7083V22.7017V22.695V22.6883V22.6817V22.675V22.6683V22.6617V22.655V22.6483V22.6417V22.635V22.6283V22.6217V22.615V22.6083V22.6033V22.5967V22.59V22.5833V22.5767V22.57V22.5633V22.5567V22.55V22.5433V22.5367V22.53V22.5233V22.5167V22.51V22.5033V22.4967V22.4917V22.485V22.4783V22.4717V22.465V22.4583V22.4517V22.445V22.4383V22.4317V22.425V22.4183V22.4133V22.4067V22.4V22.3933V22.3867V22.38V22.3733V22.3667V22.36V22.3533V22.3467V22.3417V22.335V22.3283V22.3217V22.315V22.3083V22.3017V22.295V22.2883V22.2833V22.2767V22.27V22.2633V22.2567V22.25V22.2433V22.2367V22.23V22.225V22.2183V22.2117V22.205V22.1983V22.1917V22.185V22.1783V22.1733V22.1667V22.16V22.1533V22.1467V22.14V22.1333V22.1283V22.1217V22.115V22.1083V22.1017V22.095V22.0883V22.0817V22.0767V22.07V22.0633V22.0567V22.05V22.0433V22.0367V22.0317V22.025V22.0183V22.0117V22.005V22V21.9933V21.9867V21.98V21.9733V21.9667V21.9617V21.955V21.9483V21.9417V21.935V21.9283V21.9217V21.9167V21.91V21.9033V21.8967V21.89V21.885V21.8783V21.8717V21.865V21.8583V21.8517V21.8467V21.84V21.8333V21.8267V21.82V21.815V21.8083V21.8017V21.795V21.7883V21.7833V21.7767V21.77V21.7633V21.7583V21.7517V21.745V21.7383V21.7317V21.7267V21.72V21.7133V21.7067V21.7017V21.695V21.6883V21.6817V21.675V21.67V21.6633V21.6567V21.65V21.6433V21.6383V21.6317V21.625V21.6183V21.6133V21.6067V21.6V21.5933V21.5883V21.5817V21.575V21.5683V21.5633V21.5567V21.55V21.5433V21.5383V21.5317V21.525V21.5183V21.5133V21.5067V21.5V21.4933V21.4883V21.4817V21.475V21.47V21.4633V21.4567V21.45V21.445V21.4383V21.4317V21.425V21.42V21.4133V21.4067V21.4017V21.395V21.3883V21.3817V21.3767V21.37V21.3633V21.3583V21.3517V21.345V21.3383V21.3333V21.3267V21.32V21.315V21.3083V21.3017V21.295V21.29V21.2833V21.2783V21.2717V21.265V21.2583V21.2533V21.2467V21.24V21.235V21.2283V21.2217V21.2167V21.21V21.2033V21.1983V21.1917V21.185V21.18V21.1733V21.1667V21.1617V21.155V21.1483V21.1433V21.1367V21.13V21.125V21.1183V21.1117V21.1067V21.1V21.0933V21.0883V21.0817V21.075V21.07V21.0633V21.0567V21.0517V21.045V21.04V21.0333V21.0267V21.0217V21.015V21.0083V21.0033V20.9967V20.9917V20.985V20.9783V20.9733V20.9667V20.96V20.955V20.9483V20.9433V20.9367V20.93V20.925V20.9183V20.9133V20.9067V20.9V20.895V20.8883V20.8833V20.8767V20.87V20.865V20.8583V20.8533V20.8467V20.84V20.835V20.8283V20.8233H0V24.15H1.66667ZM5.83333 16.6567H12.5V14.99H5.83333V16.6567ZM16.6667 20.8233V24.15H18.3333V24.1433V24.1367V24.1283V24.1217V24.115V24.1083V24.1017V24.095V24.0867V24.08V24.0733V24.0667V24.06V24.0533V24.0467V24.0383V24.0317V24.025V24.0183V24.0117V24.005V23.9967V23.99V23.9833V23.9767V23.97V23.9633V23.9567V23.95V23.9417V23.935V23.9283V23.9217V23.915V23.9083V23.9017V23.8933V23.8867V23.88V23.8733V23.8667V23.86V23.8533V23.8467V23.84V23.8317V23.825V23.8183V23.8117V23.805V23.7983V23.7917V23.7833V23.7767V23.77V23.7633V23.7567V23.75V23.7433V23.7367V23.73V23.7217V23.715V23.7083V23.7017V23.695V23.6883V23.6817V23.675V23.6683V23.6617V23.6533V23.6467V23.64V23.6333V23.6267V23.62V23.6133V23.6067V23.6V23.5933V23.585V23.5783V23.5717V23.565V23.5583V23.5517V23.545V23.5383V23.5317V23.525V23.5183V23.5117V23.5033V23.4967V23.49V23.4833V23.4767V23.47V23.4633V23.4567V23.45V23.4433V23.4367V23.43V23.4233V23.415V23.4083V23.4017V23.395V23.3883V23.3817V23.375V23.3683V23.3617V23.355V23.3483V23.3417V23.335V23.3283V23.3217V23.315V23.3067V23.3017V23.2933V23.2867V23.28V23.2733V23.2667V23.26V23.2533V23.2467V23.24V23.2333V23.2267V23.22V23.2133V23.2067V23.2V23.1933V23.1867V23.18V23.1733V23.1667V23.16V23.1533V23.145V23.1383V23.1317V23.125V23.1183V23.1117V23.105V23.0983V23.0917V23.085V23.0783V23.0717V23.065V23.0583V23.0517V23.045V23.0383V23.0317V23.025V23.0183V23.0117V23.005V22.9983V22.9917V22.985V22.9783V22.9717V22.965V22.9583V22.9517V22.945V22.9383V22.9317V22.925V22.9183V22.9117V22.905V22.8983V22.8917V22.885V22.8783V22.8717V22.865V22.8583V22.8517V22.845V22.8383V22.8317V22.825V22.8183V22.8117V22.805V22.7983V22.7917V22.785V22.7783V22.7717V22.7667V22.7583V22.7517V22.7467V22.74V22.7333V22.7267V22.72V22.7133V22.7067V22.7V22.6933V22.6867V22.68V22.6733V22.6667V22.66V22.6533V22.6467V22.64V22.6333V22.6267V22.62V22.6133V22.6067V22.6017V22.595V22.5883V22.5817V22.575V22.5683V22.5617V22.555V22.5483V22.5417V22.535V22.5283V22.5217V22.515V22.5083V22.5017V22.495V22.49V22.4833V22.4767V22.47V22.4633V22.4567V22.45V22.4433V22.4367V22.43V22.4233V22.4167V22.4117V22.405V22.3983V22.3917V22.385V22.3783V22.3717V22.365V22.3583V22.3517V22.345V22.34V22.3333V22.3267V22.32V22.3133V22.3067V22.3V22.2933V22.2867V22.2817V22.275V22.2683V22.2617V22.255V22.2483V22.2417V22.235V22.2283V22.2233V22.2167V22.21V22.2033V22.1967V22.19V22.1833V22.1767V22.1717V22.165V22.1583V22.1517V22.145V22.1383V22.1317V22.1267V22.12V22.1133V22.1067V22.1V22.0933V22.0867V22.08V22.075V22.0683V22.0617V22.055V22.0483V22.0417V22.035V22.03V22.0233V22.0167V22.01V22.0033V21.9983V21.9917V21.985V21.9783V21.9717V21.965V21.96V21.9533V21.9467V21.94V21.9333V21.9267V21.92V21.915V21.9083V21.9017V21.895V21.8883V21.8833V21.8767V21.87V21.8633V21.8567V21.85V21.845V21.8383V21.8317V21.825V21.8183V21.8133V21.8067V21.8V21.7933V21.7867V21.7817V21.775V21.7683V21.7617V21.7567V21.75V21.7433V21.7367V21.73V21.725V21.7183V21.7117V21.705V21.7V21.6933V21.6867V21.68V21.6733V21.6683V21.6617V21.655V21.6483V21.6417V21.6367V21.63V21.6233V21.6167V21.6117V21.605V21.5983V21.5917V21.5867V21.58V21.5733V21.5667V21.5617V21.555V21.5483V21.5417V21.5367V21.53V21.5233V21.5167V21.5117V21.505V21.4983V21.4917V21.4867V21.48V21.4733V21.4683V21.4617V21.455V21.4483V21.4433V21.4367V21.43V21.4233V21.4183V21.4117V21.405V21.4V21.3933V21.3867V21.38V21.375V21.3683V21.3617V21.3567V21.35V21.3433V21.3367V21.3317V21.325V21.3183V21.3133V21.3067V21.3V21.2933V21.2883V21.2817V21.2767V21.27V21.2633V21.2567V21.2517V21.245V21.2383V21.2333V21.2267V21.22V21.215V21.2083V21.2017V21.1967V21.19V21.1833V21.1783V21.1717V21.165V21.16V21.1533V21.1467V21.1417V21.135V21.1283V21.1233V21.1167V21.11V21.105V21.0983V21.0917V21.0867V21.08V21.0733V21.0683V21.0617V21.055V21.05V21.0433V21.0383V21.0317V21.025V21.02V21.0133V21.0067V21.0017V20.995V20.99V20.9833V20.9767V20.9717V20.965V20.9583V20.9533V20.9467V20.9417V20.935V20.9283V20.9233V20.9167V20.9117V20.905V20.8983V20.8933V20.8867V20.8817V20.875V20.8683V20.8633V20.8567V20.8517V20.845V20.8383V20.8333V20.8267V20.8217H16.6667V20.8233ZM12.5 16.6567C13.6051 16.6567 14.6649 17.0957 15.4463 17.8771C16.2277 18.6585 16.6667 19.7183 16.6667 20.8233H18.3333C18.3333 19.2762 17.7188 17.7925 16.6248 16.6985C15.5308 15.6046 14.0471 14.99 12.5 14.99V16.6567ZM1.66667 20.8233C1.66667 19.7183 2.10565 18.6585 2.88705 17.8771C3.66846 17.0957 4.72826 16.6567 5.83333 16.6567V14.99C4.28624 14.99 2.80251 15.6046 1.70854 16.6985C0.614581 17.7925 0 19.2762 0 20.8233H1.66667ZM23.3333 21.6667V24.1667H25V21.6667H23.3333ZM24.1667 23.3333H20V25H24.1667V23.3333ZM20 18.3333C20.8841 18.3333 21.7319 18.6845 22.357 19.3096C22.9821 19.9348 23.3333 20.7826 23.3333 21.6667H25C25 20.3406 24.4732 19.0688 23.5355 18.1311C22.5979 17.1934 21.3261 16.6667 20 16.6667V18.3333ZM19.1667 13.3333C18.5036 13.3333 17.8677 13.0699 17.3989 12.6011C16.9301 12.1323 16.6667 11.4964 16.6667 10.8333H15C15 11.9384 15.439 12.9982 16.2204 13.7796C17.0018 14.561 18.0616 15 19.1667 15V13.3333ZM21.6667 10.8333C21.6667 11.4964 21.4033 12.1323 20.9344 12.6011C20.4656 13.0699 19.8297 13.3333 19.1667 13.3333V15C20.2717 15 21.3315 14.561 22.1129 13.7796C22.8943 12.9982 23.3333 11.9384 23.3333 10.8333H21.6667ZM19.1667 8.33333C19.8297 8.33333 20.4656 8.59672 20.9344 9.06557C21.4033 9.53441 21.6667 10.1703 21.6667 10.8333H23.3333C23.3333 9.72826 22.8943 8.66846 22.1129 7.88705C21.3315 7.10565 20.2717 6.66667 19.1667 6.66667V8.33333ZM19.1667 6.66667C18.0616 6.66667 17.0018 7.10565 16.2204 7.88705C15.439 8.66846 15 9.72826 15 10.8333H16.6667C16.6667 10.1703 16.9301 9.53441 17.3989 9.06557C17.8677 8.59672 18.5036 8.33333 19.1667 8.33333V6.66667Z" fill="white"/>
</svg>
